<svg width="253" height="58" viewBox="0 0 547 144" fill="none" xmlns="http://www.w3.org/2000/svg">
  <path d="M43.472 106.581C39.654 106.581 36.2233 105.917 33.18 104.589C30.192 103.206 27.8403 101.324 26.125 98.945C24.4096 96.5103 23.5243 93.716 23.469 90.562H31.52C31.7966 93.2733 32.9033 95.5697 34.84 97.451C36.832 99.277 39.7093 100.19 43.472 100.19C47.0686 100.19 49.8906 99.3047 51.938 97.534C54.0406 95.708 55.092 93.384 55.092 90.562C55.092 88.3487 54.4833 86.5503 53.266 85.167C52.0486 83.7837 50.527 82.7323 48.701 82.013C46.875 81.2937 44.4126 80.519 41.314 79.689C37.496 78.693 34.425 77.697 32.101 76.701C29.8323 75.705 27.868 74.1557 26.208 72.053C24.6033 69.895 23.801 67.0177 23.801 63.421C23.801 60.267 24.6033 57.4727 26.208 55.038C27.8126 52.6033 30.0536 50.722 32.931 49.394C35.8636 48.066 39.2113 47.402 42.974 47.402C48.3966 47.402 52.8233 48.7577 56.254 51.469C59.74 54.1803 61.7043 57.777 62.147 62.259H53.847C53.5703 60.0457 52.4083 58.109 50.361 56.449C48.3136 54.7337 45.6023 53.876 42.227 53.876C39.073 53.876 36.5 54.706 34.508 56.366C32.516 57.9707 31.52 60.2393 31.52 63.172C31.52 65.2747 32.101 66.99 33.263 68.318C34.4803 69.646 35.9466 70.6697 37.662 71.389C39.4326 72.053 41.895 72.8277 45.049 73.713C48.867 74.7643 51.938 75.8157 54.262 76.867C56.586 77.863 58.578 79.44 60.238 81.598C61.898 83.7007 62.728 86.578 62.728 90.23C62.728 93.052 61.981 95.708 60.487 98.198C58.993 100.688 56.7796 102.708 53.847 104.257C50.9143 105.806 47.456 106.581 43.472 106.581ZM113.019 60.516L85.6288 127.414H77.8268L86.7908 105.502L68.4478 60.516H76.8308L91.1068 97.368L105.217 60.516H113.019ZM136.713 106.747C133.227 106.747 130.101 106.166 127.334 105.004C124.568 103.787 122.382 102.127 120.777 100.024C119.173 97.866 118.287 95.4037 118.121 92.637H125.923C126.145 94.9057 127.196 96.7593 129.077 98.198C131.014 99.6367 133.532 100.356 136.63 100.356C139.508 100.356 141.776 99.7197 143.436 98.447C145.096 97.1743 145.926 95.5697 145.926 93.633C145.926 91.641 145.041 90.1747 143.27 89.234C141.5 88.238 138.761 87.2697 135.053 86.329C131.678 85.4437 128.911 84.5583 126.753 83.673C124.651 82.7323 122.825 81.3767 121.275 79.606C119.781 77.78 119.034 75.4007 119.034 72.468C119.034 70.144 119.726 68.0137 121.109 66.077C122.493 64.1403 124.457 62.6187 127.002 61.512C129.548 60.35 132.453 59.769 135.717 59.769C140.753 59.769 144.82 61.0417 147.918 63.587C151.017 66.1323 152.677 69.6183 152.898 74.045H145.345C145.179 71.6657 144.211 69.7567 142.44 68.318C140.725 66.8793 138.401 66.16 135.468 66.16C132.757 66.16 130.599 66.741 128.994 67.903C127.39 69.065 126.587 70.5867 126.587 72.468C126.587 73.962 127.058 75.207 127.998 76.203C128.994 77.1437 130.212 77.9183 131.65 78.527C133.144 79.0803 135.192 79.7167 137.792 80.436C141.057 81.3213 143.713 82.2067 145.76 83.092C147.808 83.922 149.551 85.1947 150.989 86.91C152.483 88.6253 153.258 90.8663 153.313 93.633C153.313 96.123 152.622 98.364 151.238 100.356C149.855 102.348 147.891 103.925 145.345 105.087C142.855 106.194 139.978 106.747 136.713 106.747ZM173.189 66.741V93.55C173.189 95.7633 173.659 97.3403 174.6 98.281C175.54 99.1663 177.173 99.609 179.497 99.609H185.058V106H178.252C174.046 106 170.892 105.032 168.79 103.095C166.687 101.158 165.636 97.9767 165.636 93.55V66.741H159.743V60.516H165.636V49.062H173.189V60.516H185.058V66.741H173.189ZM235.709 81.515C235.709 82.9537 235.626 84.4753 235.46 86.08H199.106C199.383 90.562 200.904 94.0757 203.671 96.621C206.493 99.111 209.896 100.356 213.88 100.356C217.145 100.356 219.856 99.609 222.014 98.115C224.227 96.5657 225.777 94.5183 226.662 91.973H234.796C233.579 96.3443 231.144 99.9133 227.492 102.68C223.84 105.391 219.303 106.747 213.88 106.747C209.564 106.747 205.691 105.779 202.26 103.842C198.885 101.905 196.229 99.1663 194.292 95.625C192.355 92.0283 191.387 87.8783 191.387 83.175C191.387 78.4717 192.328 74.3493 194.209 70.808C196.09 67.2667 198.719 64.5553 202.094 62.674C205.525 60.7373 209.453 59.769 213.88 59.769C218.196 59.769 222.014 60.7097 225.334 62.591C228.654 64.4723 231.199 67.073 232.97 70.393C234.796 73.6577 235.709 77.365 235.709 81.515ZM227.907 79.938C227.907 77.0607 227.271 74.5983 225.998 72.551C224.725 70.4483 222.982 68.8713 220.769 67.82C218.611 66.7133 216.204 66.16 213.548 66.16C209.73 66.16 206.465 67.3773 203.754 69.812C201.098 72.2467 199.576 75.622 199.189 79.938H227.907ZM300.376 59.686C303.917 59.686 307.071 60.433 309.838 61.927C312.604 63.3657 314.79 65.5513 316.395 68.484C317.999 71.4167 318.802 74.9857 318.802 79.191V106H311.332V80.27C311.332 75.7327 310.197 72.2743 307.929 69.895C305.715 67.4603 302.7 66.243 298.882 66.243C294.953 66.243 291.827 67.5157 289.503 70.061C287.179 72.551 286.017 76.1753 286.017 80.934V106H278.547V80.27C278.547 75.7327 277.412 72.2743 275.144 69.895C272.93 67.4603 269.915 66.243 266.097 66.243C262.168 66.243 259.042 67.5157 256.718 70.061C254.394 72.551 253.232 76.1753 253.232 80.934V106H245.679V60.516H253.232V67.073C254.726 64.6937 256.718 62.8677 259.208 61.595C261.753 60.3223 264.547 59.686 267.591 59.686C271.409 59.686 274.784 60.5437 277.717 62.259C280.649 63.9743 282.835 66.492 284.274 69.812C285.546 66.6027 287.649 64.1127 290.582 62.342C293.514 60.5713 296.779 59.686 300.376 59.686ZM327.969 72.204C327.969 65.5472 329.409 59.6265 332.289 54.4419C335.17 49.1933 339.17 45.1288 344.291 42.2485C349.475 39.3041 355.332 37.8319 361.861 37.8319C369.862 37.8319 376.711 39.9442 382.407 44.1687C388.104 48.3932 391.912 54.1539 393.833 61.4507H375.782C374.438 58.6344 372.518 56.4902 370.022 55.018C367.59 53.5458 364.805 52.8097 361.669 52.8097C356.612 52.8097 352.516 54.5699 349.379 58.0903C346.243 61.6108 344.675 66.3153 344.675 72.204C344.675 78.0927 346.243 82.7973 349.379 86.3177C352.516 89.8381 356.612 91.5983 361.669 91.5983C364.805 91.5983 367.59 90.8622 370.022 89.39C372.518 87.9179 374.438 85.7736 375.782 82.9573H393.833C391.912 90.2541 388.104 96.0148 382.407 100.239C376.711 104.4 369.862 106.48 361.861 106.48C355.332 106.48 349.475 105.04 344.291 102.16C339.17 99.2152 335.17 95.1507 332.289 89.9661C329.409 84.7815 327.969 78.8608 327.969 72.204ZM400.622 79.1168C400.622 73.6122 401.647 68.7796 403.695 64.6191C405.807 60.4586 408.655 57.2582 412.24 55.018C415.824 52.7777 419.825 51.6576 424.241 51.6576C428.018 51.6576 431.314 52.4257 434.13 53.9618C437.011 55.498 439.219 57.5143 440.755 60.0106V52.4257H457.173V106H440.755V98.4151C439.155 100.911 436.915 102.928 434.034 104.464C431.218 106 427.922 106.768 424.145 106.768C419.793 106.768 415.824 105.648 412.24 103.408C408.655 101.103 405.807 97.871 403.695 93.7105C401.647 89.486 400.622 84.6215 400.622 79.1168ZM440.755 79.2128C440.755 75.1164 439.603 71.884 437.299 69.5157C435.058 67.1474 432.306 65.9633 429.042 65.9633C425.777 65.9633 422.993 67.1474 420.689 69.5157C418.449 71.82 417.328 75.0203 417.328 79.1168C417.328 83.2133 418.449 86.4777 420.689 88.91C422.993 91.2783 425.777 92.4624 429.042 92.4624C432.306 92.4624 435.058 91.2783 437.299 88.91C439.603 86.5417 440.755 83.3093 440.755 79.2128ZM465.786 79.1168C465.786 73.6122 466.81 68.7796 468.859 64.6191C470.971 60.4586 473.819 57.2582 477.404 55.018C480.988 52.7777 484.989 51.6576 489.405 51.6576C492.926 51.6576 496.126 52.3937 499.006 53.8658C501.951 55.338 504.255 57.3222 505.919 59.8185V34.9516H522.337V106H505.919V98.3191C504.383 100.879 502.175 102.928 499.294 104.464C496.478 106 493.182 106.768 489.405 106.768C484.989 106.768 480.988 105.648 477.404 103.408C473.819 101.103 470.971 97.871 468.859 93.7105C466.81 89.486 465.786 84.6215 465.786 79.1168ZM505.919 79.2128C505.919 75.1164 504.767 71.884 502.463 69.5157C500.222 67.1474 497.47 65.9633 494.206 65.9633C490.941 65.9633 488.157 67.1474 485.853 69.5157C483.612 71.82 482.492 75.0203 482.492 79.1168C482.492 83.2133 483.612 86.4777 485.853 88.91C488.157 91.2783 490.941 92.4624 494.206 92.4624C497.47 92.4624 500.222 91.2783 502.463 88.91C504.767 86.5417 505.919 83.3093 505.919 79.2128Z" fill="#141414" />
</svg>